<svg width="55" height="55" viewBox="0 0 55 55" fill="none" xmlns="http://www.w3.org/2000/svg">
<path d="M34.375 6.875C38.6961 6.875 40.8567 6.875 42.1992 8.21744C43.5416 9.55985 43.5416 11.7205 43.5416 16.0417V38.9583C43.5416 43.2795 43.5416 45.4401 42.1992 46.7825C40.8567 48.125 38.6961 48.125 34.375 48.125H20.625C16.3038 48.125 14.1432 48.125 12.8007 46.7825C11.4583 45.4401 11.4583 43.2795 11.4583 38.9583V16.0417C11.4583 11.7205 11.4583 9.55985 12.8007 8.21744C14.1432 6.875 16.3038 6.875 20.625 6.875H34.375Z" stroke="black" stroke-width="2" stroke-linejoin="round"/>
<path d="M20.625 6.875V13.75C20.625 16.2813 22.677 18.3333 25.2083 18.3333H29.7917C32.323 18.3333 34.375 16.2813 34.375 13.75V6.875" stroke="black" stroke-width="2" stroke-linecap="round" stroke-linejoin="round"/>
<path d="M20.625 34.375L24.0625 37.8125C24.6952 38.4452 25.7214 38.4452 26.3542 37.8125L34.375 29.7917" stroke="black" stroke-width="2" stroke-linecap="round" stroke-linejoin="round"/>
</svg>
